<svg xmlns="http://www.w3.org/2000/svg" viewBox="0 0 320 320" role="img" aria-label="UPI QR placeholder">
  <rect width="320" height="320" rx="28" fill="#ffffff"/>
  <rect x="34" y="34" width="82" height="82" fill="#111827"/>
  <rect x="48" y="48" width="54" height="54" fill="#ffffff"/>
  <rect x="62" y="62" width="26" height="26" fill="#111827"/>
  <rect x="204" y="34" width="82" height="82" fill="#111827"/>
  <rect x="218" y="48" width="54" height="54" fill="#ffffff"/>
  <rect x="232" y="62" width="26" height="26" fill="#111827"/>
  <rect x="34" y="204" width="82" height="82" fill="#111827"/>
  <rect x="48" y="218" width="54" height="54" fill="#ffffff"/>
  <rect x="62" y="232" width="26" height="26" fill="#111827"/>
  <rect x="144" y="146" width="18" height="18" fill="#111827"/>
  <rect x="178" y="146" width="18" height="18" fill="#111827"/>
  <rect x="212" y="146" width="18" height="18" fill="#111827"/>
  <rect x="144" y="180" width="18" height="18" fill="#111827"/>
  <rect x="178" y="180" width="18" height="18" fill="#111827"/>
  <rect x="212" y="180" width="18" height="18" fill="#111827"/>
  <rect x="144" y="214" width="18" height="18" fill="#111827"/>
  <rect x="212" y="214" width="18" height="18" fill="#111827"/>
  <rect x="246" y="214" width="18" height="18" fill="#111827"/>
  <rect x="178" y="248" width="18" height="18" fill="#111827"/>
  <rect x="212" y="248" width="18" height="18" fill="#111827"/>
  <text x="160" y="304" text-anchor="middle" fill="#111827" font-size="18" font-family="Arial, sans-serif">FF Store Pro UPI</text>
</svg>
